<?xml version="1.0" encoding="utf-8"?>
<!-- Generator: Adobe Illustrator 20.1.0, SVG Export Plug-In . SVG Version: 6.00 Build 0)  -->
<svg version="1.1" id="Layer_1" xmlns="http://www.w3.org/2000/svg" xmlns:xlink="http://www.w3.org/1999/xlink" x="0px" y="0px"
	 viewBox="0 0 196.6 452.4" style="enable-background:new 0 0 196.6 452.4;" xml:space="preserve">
<style type="text/css">
	.st0{fill:#D8D9D8;}
	.st1{fill:none;}
	.st2{fill:#3A3B3A;}
	.st3{fill:none;stroke:url(#SVGID_1_);stroke-width:0.75;}
	.st4{fill:none;stroke:url(#SVGID_2_);stroke-width:0.75;}
	.st5{fill:none;stroke:url(#SVGID_3_);stroke-width:0.75;}
	.st6{fill:none;stroke:url(#SVGID_4_);stroke-width:0.75;}
	.st7{fill:none;stroke:url(#SVGID_5_);stroke-width:0.75;}
	.st8{fill:none;stroke:url(#SVGID_6_);stroke-width:0.75;}
	.st9{fill:none;stroke:url(#SVGID_7_);stroke-width:0.75;}
	.st10{fill:none;stroke:url(#SVGID_8_);stroke-width:0.75;}
	.st11{fill:none;stroke:url(#SVGID_9_);stroke-width:0.75;}
	.st12{fill:none;stroke:url(#SVGID_10_);stroke-width:0.75;}
	.st13{fill:none;stroke:url(#SVGID_11_);stroke-width:0.75;}
	.st14{fill:none;stroke:url(#SVGID_12_);stroke-width:0.75;}
	.st15{fill:none;stroke:url(#SVGID_13_);stroke-width:0.75;}
	.st16{fill:none;stroke:url(#SVGID_14_);stroke-width:0.75;}
	.st17{fill:none;stroke:url(#SVGID_15_);stroke-width:0.75;}
	.st18{fill:none;stroke:url(#SVGID_16_);stroke-width:0.75;}
	.st19{fill:none;stroke:url(#SVGID_17_);stroke-width:0.75;}
	.st20{fill:none;stroke:url(#SVGID_18_);stroke-width:0.75;}
	.st21{fill:none;stroke:url(#SVGID_19_);stroke-width:0.75;}
	.st22{fill:none;stroke:url(#SVGID_20_);stroke-width:0.75;}
	.st23{fill:none;stroke:url(#SVGID_21_);stroke-width:0.75;}
	.st24{fill:none;stroke:url(#SVGID_22_);stroke-width:0.75;}
	.st25{fill:none;stroke:url(#SVGID_23_);stroke-width:0.75;}
	.st26{fill:none;stroke:url(#SVGID_24_);stroke-width:0.75;}
	.st27{fill:none;stroke:#FFFFFF;stroke-linecap:round;stroke-linejoin:round;}
	.st28{fill:#FFFFFF;}
	.st29{font-family:'AvenirNext-DemiBold';}
	.st30{font-size:15px;}
	.st31{font-size:19px;}
	.st32{fill:#BABABA;}
	.st33{font-size:14px;}
	.st34{fill:#B2B2B2;}
	.st35{font-family:'AvenirNext-Medium';}
</style>
<title>mfcontent</title>
<circle class="st0" cx="11.4" cy="111.3" r="10.5"/>
<line class="st1" x1="11.4" y1="103.2" x2="11.4" y2="100.8"/>
<line class="st1" x1="11.4" y1="121.8" x2="11.4" y2="119.3"/>
<line class="st1" x1="19.4" y1="110.9" x2="22" y2="110.9"/>
<line class="st1" x1="0.9" y1="110.9" x2="3.4" y2="110.9"/>
<polygon class="st2" points="13.2,113 5.8,116.9 9.7,109.5 "/>
<polygon class="st2" points="9.7,109.5 17.1,105.6 13.2,113 "/>
<linearGradient id="SVGID_1_" gradientUnits="userSpaceOnUse" x1="15.25" y1="290.275" x2="22.8266" y2="290.275" gradientTransform="matrix(1 0 0 -1 0 454)">
	<stop  offset="0" style="stop-color:#FFFFFF"/>
	<stop  offset="1" style="stop-color:#D2D3D4"/>
</linearGradient>
<polyline class="st3" points="19.6,156.6 22.5,156.6 22.4,170.9 15.2,170.9 "/>
<linearGradient id="SVGID_2_" gradientUnits="userSpaceOnUse" x1="2.7556" y1="301.7973" x2="17.2943" y2="301.7973" gradientTransform="matrix(1 0 0 -1 0 454)">
	<stop  offset="0" style="stop-color:#FFFFFF"/>
	<stop  offset="1" style="stop-color:#D2D3D4"/>
</linearGradient>
<polyline class="st4" points="3.1,153.7 3.3,151.1 16.9,152.2 16.7,153.7 "/>
<linearGradient id="SVGID_3_" gradientUnits="userSpaceOnUse" x1="1.1801" y1="284.0509" x2="15.8537" y2="284.0509" gradientTransform="matrix(1 0 0 -1 0 454)">
	<stop  offset="0" style="stop-color:#FFFFFF"/>
	<stop  offset="1" style="stop-color:#D2D3D4"/>
</linearGradient>
<polyline class="st5" points="15.5,168 15.2,171.5 1.6,170.4 1.9,168 "/>
<linearGradient id="SVGID_4_" gradientUnits="userSpaceOnUse" x1="7.499999e-02" y1="293.165" x2="19.935" y2="293.165" gradientTransform="matrix(1 0 0 -1 0 454)">
	<stop  offset="0" style="stop-color:#FFFFFF"/>
	<stop  offset="1" style="stop-color:#D2D3D4"/>
</linearGradient>
<rect x="0.4" y="153.7" class="st6" width="19.1" height="14.3"/>
<linearGradient id="SVGID_5_" gradientUnits="userSpaceOnUse" x1="3.06" y1="293.2401" x2="10.36" y2="293.2401" gradientTransform="matrix(1 0 0 -1 0 454)">
	<stop  offset="0" style="stop-color:#FFFFFF"/>
	<stop  offset="1" style="stop-color:#D2D3D4"/>
</linearGradient>
<path class="st7" d="M9.5,159.4c-0.9,0.3-1.7,0.6-2.5,1.1l0.3-2.7c0-0.3-0.3-0.3-0.6-0.3c-1.8,0-3.3,1.5-3.2,3.3s1.5,3.3,3.3,3.2
	c1.6,0,3-1.3,3.2-2.9C10,160.7,10,159.4,9.5,159.4z"/>
<linearGradient id="SVGID_6_" gradientUnits="userSpaceOnUse" x1="12.88" y1="290.77" x2="16.67" y2="290.77" gradientTransform="matrix(1 0 0 -1 0 454)">
	<stop  offset="0" style="stop-color:#FFFFFF"/>
	<stop  offset="1" style="stop-color:#D2D3D4"/>
</linearGradient>
<line class="st8" x1="12.9" y1="163.2" x2="16.7" y2="163.2"/>
<linearGradient id="SVGID_7_" gradientUnits="userSpaceOnUse" x1="12.88" y1="293.64" x2="16.67" y2="293.64" gradientTransform="matrix(1 0 0 -1 0 454)">
	<stop  offset="0" style="stop-color:#FFFFFF"/>
	<stop  offset="1" style="stop-color:#D2D3D4"/>
</linearGradient>
<line class="st9" x1="12.9" y1="160.4" x2="16.7" y2="160.4"/>
<linearGradient id="SVGID_8_" gradientUnits="userSpaceOnUse" x1="12.88" y1="296.51" x2="16.67" y2="296.51" gradientTransform="matrix(1 0 0 -1 0 454)">
	<stop  offset="0" style="stop-color:#FFFFFF"/>
	<stop  offset="1" style="stop-color:#D2D3D4"/>
</linearGradient>
<line class="st10" x1="12.9" y1="157.5" x2="16.7" y2="157.5"/>
<linearGradient id="SVGID_9_" gradientUnits="userSpaceOnUse" x1="7.000000e-02" y1="243.27" x2="3.26" y2="243.27" gradientTransform="matrix(1 0 0 -1 0 454)">
	<stop  offset="0" style="stop-color:#FFFFFF"/>
	<stop  offset="1" style="stop-color:#D2D3D4"/>
</linearGradient>
<circle class="st11" cx="1.7" cy="210.7" r="1.2"/>
<linearGradient id="SVGID_10_" gradientUnits="userSpaceOnUse" x1="6.59" y1="247.42" x2="9.78" y2="247.42" gradientTransform="matrix(1 0 0 -1 0 454)">
	<stop  offset="0" style="stop-color:#FFFFFF"/>
	<stop  offset="1" style="stop-color:#D2D3D4"/>
</linearGradient>
<circle class="st12" cx="8.2" cy="206.6" r="1.2"/>
<linearGradient id="SVGID_11_" gradientUnits="userSpaceOnUse" x1="13.11" y1="237.34" x2="16.3" y2="237.34" gradientTransform="matrix(1 0 0 -1 0 454)">
	<stop  offset="0" style="stop-color:#FFFFFF"/>
	<stop  offset="1" style="stop-color:#D2D3D4"/>
</linearGradient>
<circle class="st13" cx="14.7" cy="216.7" r="1.2"/>
<linearGradient id="SVGID_12_" gradientUnits="userSpaceOnUse" x1="19.63" y1="244.45" x2="22.82" y2="244.45" gradientTransform="matrix(1 0 0 -1 0 454)">
	<stop  offset="0" style="stop-color:#FFFFFF"/>
	<stop  offset="1" style="stop-color:#D2D3D4"/>
</linearGradient>
<circle class="st14" cx="21.2" cy="209.6" r="1.2"/>
<linearGradient id="SVGID_13_" gradientUnits="userSpaceOnUse" x1="2.4897" y1="245.335" x2="7.3703" y2="245.335" gradientTransform="matrix(1 0 0 -1 0 454)">
	<stop  offset="0" style="stop-color:#FFFFFF"/>
	<stop  offset="1" style="stop-color:#D2D3D4"/>
</linearGradient>
<line class="st15" x1="7.2" y1="207.2" x2="2.7" y2="210.1"/>
<linearGradient id="SVGID_14_" gradientUnits="userSpaceOnUse" x1="8.5351" y1="242.375" x2="14.3651" y2="242.375" gradientTransform="matrix(1 0 0 -1 0 454)">
	<stop  offset="0" style="stop-color:#FFFFFF"/>
	<stop  offset="1" style="stop-color:#D2D3D4"/>
</linearGradient>
<line class="st16" x1="8.9" y1="207.6" x2="14" y2="215.6"/>
<linearGradient id="SVGID_15_" gradientUnits="userSpaceOnUse" x1="15.2442" y1="240.895" x2="20.6942" y2="240.895" gradientTransform="matrix(1 0 0 -1 0 454)">
	<stop  offset="0" style="stop-color:#FFFFFF"/>
	<stop  offset="1" style="stop-color:#D2D3D4"/>
</linearGradient>
<line class="st17" x1="15.5" y1="215.8" x2="20.4" y2="210.4"/>
<linearGradient id="SVGID_16_" gradientUnits="userSpaceOnUse" x1="7.409863e-02" y1="198.3375" x2="6.9262" y2="198.3375" gradientTransform="matrix(1 0 0 -1 0 454)">
	<stop  offset="0" style="stop-color:#FFFFFF"/>
	<stop  offset="1" style="stop-color:#D2D3D4"/>
</linearGradient>
<path class="st18" d="M6.4,257.8c-1-0.4-2.1-1-2.2-1.3v-0.4c0.2-0.3,0.4-0.6,0.5-0.9c0.2-0.2,0.3-0.6,0.1-0.8v-0.8
	c0.1-0.7-0.4-1.3-1-1.3c-0.1,0-0.2,0-0.3,0c-0.7-0.1-1.3,0.4-1.3,1.1c0,0.1,0,0.2,0,0.2v0.8c-0.2,0.3-0.1,0.6,0.1,0.8
	c0.1,0.3,0.2,0.7,0.5,0.9v0.4c-0.1,0.3-1.2,0.9-2.2,1.3c-0.1,0-0.1,0.1-0.1,0.2v0.9c0,0.1,0.1,0.2,0.2,0.2c0,0,0,0,0,0h5.7
	c0.1,0,0.2-0.1,0.2-0.2c0,0,0,0,0,0V258C6.6,257.9,6.5,257.8,6.4,257.8z"/>
<linearGradient id="SVGID_17_" gradientUnits="userSpaceOnUse" x1="8.4041" y1="186.2075" x2="15.2541" y2="186.2075" gradientTransform="matrix(1 0 0 -1 0 454)">
	<stop  offset="0" style="stop-color:#FFFFFF"/>
	<stop  offset="1" style="stop-color:#D2D3D4"/>
</linearGradient>
<path class="st19" d="M14.7,269.9c-1-0.4-2.1-1-2.2-1.3v-0.4c0.2-0.3,0.4-0.6,0.5-0.9c0.2-0.2,0.3-0.6,0.1-0.8v-0.8
	c0.1-0.7-0.4-1.3-1-1.3c-0.1,0-0.2,0-0.3,0c-0.7-0.1-1.3,0.4-1.3,1.1c0,0.1,0,0.2,0,0.2v0.8c-0.2,0.3-0.1,0.6,0.1,0.8
	c0.1,0.3,0.2,0.7,0.5,0.9v0.4c-0.1,0.3-1.2,0.9-2.2,1.3c-0.1,0-0.1,0.1-0.1,0.2v0.9c0,0.1,0.1,0.2,0.2,0.2c0,0,0,0,0,0h5.7
	c0.1,0,0.2-0.1,0.2-0.2c0,0,0,0,0,0v-0.9C14.9,270,14.8,269.9,14.7,269.9z"/>
<linearGradient id="SVGID_18_" gradientUnits="userSpaceOnUse" x1="15.9741" y1="198.3375" x2="22.8241" y2="198.3375" gradientTransform="matrix(1 0 0 -1 0 454)">
	<stop  offset="0" style="stop-color:#FFFFFF"/>
	<stop  offset="1" style="stop-color:#D2D3D4"/>
</linearGradient>
<path class="st20" d="M22.3,257.8c-1-0.4-2.1-1-2.2-1.3v-0.4c0.2-0.3,0.4-0.6,0.5-0.9c0.2-0.2,0.3-0.6,0.1-0.8v-0.8
	c0.1-0.7-0.4-1.3-1-1.3c-0.1,0-0.2,0-0.3,0c-0.7-0.1-1.3,0.4-1.3,1.1c0,0.1,0,0.2,0,0.2v0.8c-0.2,0.3-0.1,0.6,0.1,0.8
	c0.1,0.3,0.2,0.7,0.5,0.9v0.4c-0.1,0.3-1.2,0.9-2.2,1.3c-0.1,0-0.1,0.1-0.1,0.2v0.9c0,0.1,0.1,0.2,0.2,0.2c0,0,0,0,0,0h5.7
	c0.1,0,0.2-0.1,0.2-0.2c0,0,0,0,0,0V258C22.5,257.9,22.4,257.8,22.3,257.8z"/>
<linearGradient id="SVGID_19_" gradientUnits="userSpaceOnUse" x1="7.2616" y1="202.3391" x2="15.8584" y2="202.3391" gradientTransform="matrix(1 0 0 -1 0 454)">
	<stop  offset="0" style="stop-color:#FFFFFF"/>
	<stop  offset="1" style="stop-color:#D2D3D4"/>
</linearGradient>
<path class="st21" d="M15.7,252.2c-2.5-1.5-5.7-1.5-8.2,0"/>
<linearGradient id="SVGID_20_" gradientUnits="userSpaceOnUse" x1="15.8634" y1="189.915" x2="20.0626" y2="189.915" gradientTransform="matrix(1 0 0 -1 0 454)">
	<stop  offset="0" style="stop-color:#FFFFFF"/>
	<stop  offset="1" style="stop-color:#D2D3D4"/>
</linearGradient>
<path class="st22" d="M16.1,266.9c2-1.3,3.3-3.5,3.6-5.9C19.4,263.4,18.1,265.6,16.1,266.9"/>
<linearGradient id="SVGID_21_" gradientUnits="userSpaceOnUse" x1="3.05" y1="189.9148" x2="7.25" y2="189.9148" gradientTransform="matrix(1 0 0 -1 0 454)">
	<stop  offset="0" style="stop-color:#FFFFFF"/>
	<stop  offset="1" style="stop-color:#D2D3D4"/>
</linearGradient>
<path class="st23" d="M7,266.9c-2-1.3-3.3-3.5-3.6-5.9C3.7,263.4,5,265.6,7,266.9"/>
<linearGradient id="SVGID_22_" gradientUnits="userSpaceOnUse" x1="13.3158" y1="138.97" x2="18.7258" y2="138.97" gradientTransform="matrix(1 0 0 -1 0 454)">
	<stop  offset="0" style="stop-color:#FFFFFF"/>
	<stop  offset="1" style="stop-color:#D2D3D4"/>
</linearGradient>
<line class="st24" x1="13.3" y1="315" x2="18.7" y2="315.1"/>
<linearGradient id="SVGID_23_" gradientUnits="userSpaceOnUse" x1="4.836396e-03" y1="142.83" x2="22.8852" y2="142.83" gradientTransform="matrix(1 0 0 -1 0 454)">
	<stop  offset="0" style="stop-color:#FFFFFF"/>
	<stop  offset="1" style="stop-color:#D2D3D4"/>
</linearGradient>
<path class="st25" d="M22.4,317.7c0,0.7-0.6,1.3-1.3,1.2c0,0,0,0,0,0l-19.5-0.2c-0.7,0-1.3-0.6-1.2-1.3c0,0,0,0,0,0l0.1-12.8
	c0-0.7,0.6-1.3,1.3-1.2c0,0,0,0,0,0l19.5,0.2c0.7,0,1.3,0.6,1.2,1.3c0,0,0,0,0,0L22.4,317.7z"/>
<linearGradient id="SVGID_24_" gradientUnits="userSpaceOnUse" x1="6.866559e-02" y1="145.5189" x2="22.8682" y2="145.5189" gradientTransform="matrix(1 0 0 -1 1.177389e-02 454.0069)">
	<stop  offset="0" style="stop-color:#FFFFFF"/>
	<stop  offset="1" style="stop-color:#D2D3D4"/>
</linearGradient>
<rect x="9.6" y="297.5" transform="matrix(1.116986e-02 -0.9999 0.9999 1.116986e-02 -297.1168 316.5217)" class="st26" width="3.8" height="22"/>
<circle class="st27" cx="185.1" cy="440.9" r="4.1"/>
<path class="st27" d="M193,442.8l3-0.4c0.1-1,0.1-2,0-3l-3-0.4c-0.2-0.8-0.5-1.6-1-2.3l1.8-2.4c-0.6-0.8-1.3-1.5-2.1-2.1l-2.4,1.8
	c-0.7-0.5-1.5-0.8-2.3-1l-0.4-3c-1-0.1-2-0.1-3,0l-0.4,3c-0.8,0.2-1.6,0.5-2.3,1l-2.4-1.8c-0.8,0.6-1.5,1.3-2.1,2.1l1.8,2.4
	c-0.5,0.7-0.8,1.5-1,2.3l-3,0.4c-0.1,1-0.1,2,0,3l3,0.4c0.2,0.8,0.5,1.6,1,2.3l-1.8,2.4c0.6,0.8,1.3,1.5,2.1,2.1l2.4-1.8
	c0.7,0.5,1.5,0.8,2.3,1l0.4,3c1,0.1,2,0.1,3,0l0.4-3c0.8-0.2,1.6-0.5,2.3-1l2.4,1.8c0.8-0.6,1.5-1.3,2.1-2.1l-1.8-2.4
	C192.5,444.4,192.8,443.6,193,442.8z"/>
<rect x="46.7" y="103.8" class="st1" width="163.4" height="13.1"/>
<text transform="matrix(1 0 0 1 46.72 115.1098)" class="st28 st29 st30">OVERVIEW</text>
<rect x="1.7" y="20" class="st1" width="176.3" height="17"/>
<text transform="matrix(1 0 0 1 26.9872 34.3643)" class="st28 st29 st31">Tony Custable</text>
<rect x="1.7" y="46.2" class="st1" width="176.3" height="17"/>
<text transform="matrix(1 0 0 1 25.1844 56.827)" class="st32 st29 st33">Intrinsic Innovations</text>
<rect x="46.7" y="153.8" class="st1" width="163.4" height="13.1"/>
<text transform="matrix(1 0 0 1 46.72 165.1098)" class="st34 st35 st30">CAMPAIGNS</text>
<rect x="46.7" y="203.8" class="st1" width="163.4" height="13.1"/>
<text transform="matrix(1 0 0 1 46.72 215.1098)" class="st34 st35 st30">ANALYTICS</text>
<rect x="46.7" y="253.8" class="st1" width="163.4" height="13.1"/>
<text transform="matrix(1 0 0 1 46.72 265.1099)" class="st34 st35 st30">TEAMS</text>
<rect x="46.7" y="303.8" class="st1" width="163.4" height="13.1"/>
<text transform="matrix(1 0 0 1 46.72 315.1099)" class="st34 st35 st30">SALES</text>
</svg>
