<?xml version="1.0" encoding="utf-8"?>
<!-- Generator: Adobe Illustrator 21.0.2, SVG Export Plug-In . SVG Version: 6.00 Build 0)  -->
<svg version="1.1" id="Layer_1" xmlns="http://www.w3.org/2000/svg" xmlns:xlink="http://www.w3.org/1999/xlink" x="0px" y="0px"
	 viewBox="0 0 200 43" style="enable-background:new 0 0 200 43;" xml:space="preserve">
<style type="text/css">
	.st0{fill:#FFFFFF;}
</style>
<g>
	<path class="st0" d="M63.9,14.8c-0.6-2.2-1.6-4.3-2.8-6.1c-1.2-1.8-2.7-3.3-4.5-4.5c-1.8-1.2-3.7-1.7-6-1.7H5.5c0,0,0,0-0.1,0
		c0,0-0.1,0-0.1,0c-2.3,0-4.2,1.9-4.2,4.2c0,2.3,1.9,4.2,4.2,4.2c0,0,0.1,0,0.1,0c0,0,0.1,0,0.1,0H49c1.8,0,3.2,0.4,4.3,1.1
		c1.1,0.7,2,1.6,2.7,2.7c0.6,1,1.1,2.2,1.3,3.4c0.2,1.3,0.3,2.4,0.3,3.5c0,1-0.1,2.2-0.3,3.4c-0.2,1.3-0.7,2.4-1.3,3.4
		c-0.6,1-1.5,1.9-2.7,2.7c-1.1,0.7-2.6,1.1-4.3,1.1H9.5v-11c0-2.3-1.9-4.2-4.2-4.2s-4.2,1.9-4.2,4.2v15.2c0,2.3,1.9,4.2,4.2,4.2
		c0,0,0.1,0,0.1,0c0,0,0,0,0.1,0h45.9c2.1-0.1,4-0.8,5.7-2c1.7-1.2,3.1-2.7,4.2-4.5c1.2-1.8,2.1-3.8,2.7-6c0.6-2.2,0.9-4.4,0.9-6.6
		C64.9,19.3,64.5,17.1,63.9,14.8 M124.1,31.2c-0.7,0.7-1.4,1-2.3,1H79.3v-6.5h42.6c0.9,0,1.6,0.3,2.3,0.9c0.6,0.6,1,1.3,1,2.3
		C125.1,29.7,124.8,30.5,124.1,31.2 M130.6,21.4c0.8-1,1.5-2.1,2-3.4c0.5-1.3,0.7-2.6,0.7-4c0-1.6-0.3-3.1-0.9-4.5
		c-0.6-1.4-1.5-2.6-2.5-3.7c-1.1-1-2.3-1.9-3.8-2.5c-1.4-0.6-3-0.9-4.6-0.9H75l0,0c-2.3,0-4.2,1.9-4.2,4.2v0l0,0
		c0,0.9,0.3,1.7,0.7,2.3c0,0,0,0,0,0c0.1,0.1,0.1,0.2,0.2,0.3c0,0,0.1,0.1,0.1,0.1c0.1,0.1,0.1,0.1,0.2,0.2c0,0,0.1,0.1,0.1,0.1
		c0.1,0.1,0.1,0.1,0.2,0.2c0.1,0,0.1,0.1,0.2,0.1c0.1,0,0.1,0.1,0.2,0.1c0.1,0,0.1,0.1,0.2,0.1c0,0,0.1,0.1,0.1,0.1
		c0.1,0,0.2,0.1,0.2,0.1c0,0,0.1,0,0.1,0.1c0.1,0,0.2,0.1,0.2,0.1c0,0,0.1,0,0.1,0.1c0.1,0,0.2,0,0.2,0.1c0.1,0,0.1,0,0.2,0
		c0.1,0,0.2,0,0.2,0c0.1,0,0.1,0,0.2,0c0.1,0,0.1,0,0.2,0c0.1,0,0.1,0,0.2,0l46.8,0c0.9,0,1.7,0.3,2.3,1c0.7,0.6,1,1.4,1,2.3
		c0,0.9-0.3,1.7-1,2.3c-0.7,0.6-1.4,0.9-2.3,0.9H75.1h0h0h0v0c-0.2,0-0.5,0-0.7,0.1c0,0,0,0,0,0c-0.2,0-0.4,0.1-0.6,0.2
		c0,0,0,0-0.1,0c-0.2,0.1-0.4,0.2-0.6,0.3c0,0,0,0,0,0c-0.4,0.2-0.7,0.5-1,0.9c0,0,0,0,0,0c-0.1,0.2-0.3,0.3-0.4,0.5l0,0
		c-0.4,0.6-0.6,1.4-0.6,2.2v14.9c0,2.3,1.9,4.2,4.2,4.2v0h46.4c1.6,0,3.2-0.3,4.6-0.9c1.4-0.6,2.7-1.4,3.8-2.5
		c1.1-1,1.9-2.3,2.5-3.7c0.6-1.4,0.9-3,0.9-4.6c0-1.5-0.2-2.8-0.7-4.1C132.1,23.5,131.4,22.4,130.6,21.4 M197.1,32.8
		c0,0-51.1-29.5-51.2-29.6c-0.4-0.2-0.8-0.4-1.2-0.6c-0.3-0.1-0.7-0.2-1.1-0.2h-0.1c-2.3,0-4.2,1.9-4.2,4.2v30.1l0.1,0.3h0
		c0.3,1.9,1.9,3.3,3.9,3.4v0l0,0c0.1,0,0.2,0,0.2,0c2.3,0,4.2-1.9,4.2-4.2l0,0l0-22.1l31.3,18c0,0-20.2,0-20.3,0
		c-2.3,0-4.2,1.9-4.2,4.2c0,2.3,1.9,4.2,4.2,4.2h36.1l0.3,0v0c2.2-0.2,3.9-2,3.9-4.3C198.9,34.9,198.2,33.6,197.1,32.8"/>
</g>
</svg>
