<?xml version="1.0" encoding="utf-8"?>
<!-- Generator: Adobe Illustrator 20.1.0, SVG Export Plug-In . SVG Version: 6.00 Build 0)  -->
<svg version="1.1" id="Layer_1" xmlns="http://www.w3.org/2000/svg" xmlns:xlink="http://www.w3.org/1999/xlink" x="0px" y="0px"
	 viewBox="0 0 30.4 34.6" style="enable-background:new 0 0 30.4 34.6;" xml:space="preserve">
<style type="text/css">
	.st0{fill:none;stroke:#FFFFFF;stroke-linecap:round;stroke-linejoin:round;}
	.st1{fill:#FF1FA5;}
	.st2{fill:#FFFFFF;}
	.st3{font-family:'AvenirNext-Regular';}
	.st4{font-size:9px;}
	.st5{font-family:'AvenirNext-Medium';}
	.st6{font-size:11px;}
</style>
<title>alerts</title>
<g id="Layer_2">
	<g id="Content">
		<path class="st0" d="M22.5,26.8"/>
		<path class="st0" d="M22.5,26.8c-2.6-2.9-4-6.7-3.8-10.6c0.2-2.5-1.2-4.9-3.5-6c-2.3-1.2-5.1-1.2-7.4,0c-2.3,1.1-3.7,3.5-3.5,6
			c0.2,3.9-1.2,7.7-3.8,10.6"/>
		<path class="st0" d="M0.5,26.8"/>
		<path class="st0" d="M22.5,26.8c-6,4.9-16,4.9-22,0"/>
		<path class="st0" d="M0.5,26.8"/>
		<path class="st0" d="M22.5,26.8"/>
		<path class="st0" d="M9,32.1c0.1,1.2,1.2,2.1,2.5,2c1.2,0.1,2.3-0.8,2.5-2"/>
		<circle class="st1" cx="19.7" cy="10.7" r="10.7"/>
		<text transform="matrix(1 0 0 1 13.8503 14.25)" class="st2 st3 st4"> </text>
		<text transform="matrix(1 0 0 1 16.5502 14.25)" class="st2 st5 st6">5</text>
	</g>
</g>
</svg>
