<?xml version="1.0" encoding="utf-8"?>
<!-- Generator: Adobe Illustrator 20.1.0, SVG Export Plug-In . SVG Version: 6.00 Build 0)  -->
<svg version="1.1" id="Layer_1" xmlns="http://www.w3.org/2000/svg" xmlns:xlink="http://www.w3.org/1999/xlink" x="0px" y="0px"
	 viewBox="0 0 172.5 103.4" style="enable-background:new 0 0 172.5 103.4;" xml:space="preserve">
<style type="text/css">
	.st0{fill:none;stroke:url(#SVGID_1_);stroke-width:0.75;}
	.st1{fill:none;stroke:url(#SVGID_2_);stroke-width:0.75;}
	.st2{fill:none;stroke:url(#SVGID_3_);stroke-width:0.75;}
	.st3{fill:none;stroke:url(#SVGID_4_);stroke-width:0.75;}
	.st4{fill:none;stroke:url(#SVGID_5_);stroke-width:0.75;}
	.st5{fill:none;}
	.st6{fill:#6B6B6B;}
	.st7{font-family:'AvenirNext-Medium';}
	.st8{font-size:15px;}
	.st9{font-family:'AvenirNext-Regular';}
	.st10{font-size:46px;}
</style>
<title>invitessent_3</title>
<linearGradient id="SVGID_1_" gradientUnits="userSpaceOnUse" x1="115.4937" y1="86.1268" x2="155.2332" y2="86.1268" gradientTransform="matrix(1 0 0 -1 5.313514e-03 105.9984)">
	<stop  offset="0" style="stop-color:#2E368F"/>
	<stop  offset="1" style="stop-color:#1C76BC"/>
</linearGradient>
<path class="st0" d="M116.3,23.4l22.6-22.6c0.6-0.6,1.5-0.6,2.1,0l13.5,13.5c0.6,0.6,0.6,1.5,0,2.1l-22.6,22.6
	c-0.6,0.6-1.5,0.6-2.1,0l-13.5-13.5C115.7,24.9,115.7,24,116.3,23.4z"/>
<linearGradient id="SVGID_2_" gradientUnits="userSpaceOnUse" x1="115.7973" y1="93.5131" x2="140.1659" y2="93.5131" gradientTransform="matrix(1 0 0 -1 0 106)">
	<stop  offset="0" style="stop-color:#2E368F"/>
	<stop  offset="1" style="stop-color:#1C76BC"/>
</linearGradient>
<polyline class="st1" points="115.9,24.3 135.4,19.9 139.8,0.4 "/>
<linearGradient id="SVGID_3_" gradientUnits="userSpaceOnUse" x1="101.8948" y1="69.38" x2="113.8052" y2="69.38" gradientTransform="matrix(1 0 0 -1 0 106)">
	<stop  offset="0" style="stop-color:#2E368F"/>
	<stop  offset="1" style="stop-color:#1C76BC"/>
</linearGradient>
<line class="st2" x1="113.5" y1="30.9" x2="102.2" y2="42.3"/>
<linearGradient id="SVGID_4_" gradientUnits="userSpaceOnUse" x1="110.4248" y1="66.47" x2="118.5848" y2="66.47" gradientTransform="matrix(1 0 0 -1 0 106)">
	<stop  offset="0" style="stop-color:#2E368F"/>
	<stop  offset="1" style="stop-color:#1C76BC"/>
</linearGradient>
<line class="st3" x1="118.3" y1="35.7" x2="110.7" y2="43.3"/>
<linearGradient id="SVGID_5_" gradientUnits="userSpaceOnUse" x1="119.03" y1="63.595" x2="123.3796" y2="63.595" gradientTransform="matrix(1 0 0 -1 0 106)">
	<stop  offset="0" style="stop-color:#2E368F"/>
	<stop  offset="1" style="stop-color:#1C76BC"/>
</linearGradient>
<line class="st4" x1="123.1" y1="40.5" x2="119.3" y2="44.3"/>
<rect x="-87.3" y="70.8" class="st5" width="348.2" height="36"/>
<text transform="matrix(1 0 0 1 38.3806 82.1282)" class="st6 st7 st8">INVITES SENT</text>
<rect x="3.8" y="6.7" class="st5" width="104.2" height="36"/>
<text transform="matrix(1 0 0 1 15.8539 41.4581)" class="st6 st9 st10">647</text>
</svg>
