<?xml version="1.0" encoding="utf-8"?>
<!-- Generator: Adobe Illustrator 20.1.0, SVG Export Plug-In . SVG Version: 6.00 Build 0)  -->
<svg version="1.1" id="Layer_1" xmlns="http://www.w3.org/2000/svg" xmlns:xlink="http://www.w3.org/1999/xlink" x="0px" y="0px"
	 viewBox="0 0 173.6 102" style="enable-background:new 0 0 173.6 102;" xml:space="preserve">
<style type="text/css">
	.st0{fill:none;stroke:url(#SVGID_1_);stroke-width:0.75;}
	.st1{fill:none;stroke:url(#SVGID_2_);stroke-width:0.75;}
	.st2{fill:none;}
	.st3{fill:#6B6B6B;}
	.st4{font-family:'AvenirNext-Medium';}
	.st5{font-size:15px;}
	.st6{font-family:'AvenirNext-Regular';}
	.st7{font-size:46px;}
</style>
<title>invitesaccepted_1</title>
<linearGradient id="SVGID_1_" gradientUnits="userSpaceOnUse" x1="113.865" y1="81.9887" x2="152.605" y2="81.9887" gradientTransform="matrix(1 0 0 -1 0 104)">
	<stop  offset="0" style="stop-color:#2E368F"/>
	<stop  offset="1" style="stop-color:#1C76BC"/>
</linearGradient>
<path class="st0" d="M152.2,17.9c0-0.4-0.2-0.8-0.6-1L134.1,4.2c-0.5-0.3-1.1-0.3-1.6,0l-17.6,12.6c-0.3,0.2-0.6,0.6-0.6,1v21
	c0.1,0.7,0.7,1.3,1.5,1.3h35.1c0.7,0,1.3-0.5,1.4-1.2V17.9z"/>
<linearGradient id="SVGID_2_" gradientUnits="userSpaceOnUse" x1="114.0525" y1="80.8371" x2="152.3286" y2="80.8371" gradientTransform="matrix(1 0 0 -1 0 104)">
	<stop  offset="0" style="stop-color:#2E368F"/>
	<stop  offset="1" style="stop-color:#1C76BC"/>
</linearGradient>
<polyline class="st1" points="114.2,18 133.3,28.2 152.1,18 "/>
<rect x="-87.3" y="70.8" class="st2" width="348.2" height="36"/>
<text transform="matrix(1 0 0 1 17.8083 82.1282)" class="st3 st4 st5">INVITES ACCEPTED</text>
<rect x="3.8" y="6.7" class="st2" width="104.2" height="36"/>
<text transform="matrix(1 0 0 1 15.8539 41.4581)" class="st3 st6 st7">343</text>
</svg>
