<?xml version="1.0" encoding="utf-8"?>
<!-- Generator: Adobe Illustrator 20.1.0, SVG Export Plug-In . SVG Version: 6.00 Build 0)  -->
<svg version="1.1" id="Layer_1" xmlns="http://www.w3.org/2000/svg" xmlns:xlink="http://www.w3.org/1999/xlink" x="0px" y="0px"
	 viewBox="0 0 217.8 452.5" style="enable-background:new 0 0 217.8 452.5;" xml:space="preserve">
<style type="text/css">
	.st0{fill:none;stroke:#D1D1D1;stroke-width:0.5;stroke-linecap:round;stroke-linejoin:round;}
	.st1{fill:#2A86D1;}
	.st2{fill:#FFFFFF;}
	.st3{fill:#534AFF;}
	.st4{fill:none;stroke:#FCFCFC;stroke-width:0.75;}
	.st5{fill:#D1D1D1;}
	.st6{font-family:'AvenirNext-Medium';}
	.st7{font-size:14px;}
	.st8{opacity:0.7;fill:#FF1FA5;enable-background:new    ;}
	.st9{opacity:0.8;}
	.st10{fill:#35BA3B;}
	.st11{fill:none;}
	.st12{enable-background:new    ;}
	.st13{fill:#BABABA;}
</style>
<title>notifications_1</title>
<line class="st0" x1="14.9" y1="58.5" x2="203.9" y2="58.5"/>
<line class="st0" x1="14.9" y1="118.5" x2="203.9" y2="118.5"/>
<line class="st0" x1="14.9" y1="178.5" x2="203.9" y2="178.5"/>
<line class="st0" x1="14.9" y1="238.5" x2="203.9" y2="238.5"/>
<ellipse transform="matrix(0.7071 -0.7071 0.7071 0.7071 -98.9401 58.1976)" class="st1" cx="20.8" cy="148.5" rx="9.7" ry="9.7"/>
<path class="st2" d="M26.2,146.7h-3.8l-1.3-3.6c0-0.2-0.3-0.3-0.5-0.2c-0.2,0-0.2,0.2-0.2,0.2l-1.3,3.6h-3.6c-0.2,0-0.3,0.2-0.3,0.3
	s0,0.2,0.2,0.3l3,2.3l-1.2,3.6c0,0.2,0,0.3,0.2,0.5c0.2,0,0.2,0,0.3,0l3.1-2.1l3.1,2.1c0.2,0.2,0.3,0,0.5-0.2c0-0.2,0-0.2,0-0.3
	l-1.2-3.6l3.1-2.3c0.2-0.2,0.2-0.3,0.2-0.5C26.4,146.9,26.4,146.9,26.2,146.7z"/>
<g>
	
		<ellipse transform="matrix(0.7071 -0.7071 0.7071 0.7071 -140.8503 75.5954)" class="st3" cx="20.8" cy="207.8" rx="9.6" ry="9.6"/>
	<line class="st4" x1="22.8" y1="213.4" x2="23.8" y2="202.3"/>
	<line class="st4" x1="17.9" y1="213.4" x2="18.9" y2="202.3"/>
	<line class="st4" x1="15.4" y1="205.8" x2="26.5" y2="205.8"/>
	<line class="st4" x1="15.4" y1="209.6" x2="26.5" y2="209.6"/>
</g>
<text transform="matrix(1 0 0 1 75.0764 400.1659)" class="st5 st6 st7">VIEW ALL</text>
<circle class="st8" cx="203.9" cy="25.2" r="2.9"/>
<g class="st9">
	<polyline class="st10" points="24.9,34.1 24.9,44.3 20.9,40.2 16.7,44.3 16.7,34.1 	"/>
	<path class="st10" d="M27.7,28.2c0.5-1,0.2-2.3-0.7-3c1-0.9,1.4-2.4,0.5-3.5c-0.5-0.7-1.4-1-2.3-1c0.2-1.2-0.9-2.4-2.3-2.6
		c-0.7-0.2-1.6,0.2-2.1,0.9c-0.9-1-2.4-1.4-3.5-0.5c-0.7,0.5-1,1.4-0.9,2.3c-1.4-0.2-2.6,0.9-2.8,2.3c0,0.7,0.2,1.4,0.7,1.9
		c-1,0.9-1.2,2.4-0.3,3.5c0.5,0.7,1.4,1,2.3,1c-0.2,1.2,0.7,2.4,2.1,2.6c0.9,0.2,1.7-0.2,2.3-0.9c0.9,1,2.4,1.4,3.5,0.5
		c0.5-0.5,1-1.4,0.9-2.1C26.1,29.6,27.2,29,27.7,28.2z M19.9,27.3c-1.2-0.5-1.7-1.9-1.2-3.1c0.5-1.2,1.9-1.7,3.1-1.2
		s1.7,1.9,1.2,3.1C22.5,27.3,21.1,27.8,19.9,27.3L19.9,27.3z"/>
</g>
<rect x="39" y="14.3" class="st11" width="164.2" height="33.7"/>
<text transform="matrix(1 0 0 1 38.9809 26.2535)" class="st12"><tspan x="0" y="0" class="st13 st6 st7">You have met your goal </tspan><tspan x="0" y="16.8" class="st13 st6 st7">of 300 invites accepted!</tspan></text>
<circle class="st8" cx="203.9" cy="91.1" r="2.9"/>
<g class="st9">
	<polyline class="st10" points="24.9,94.1 24.9,104.3 20.9,100.2 16.7,104.3 16.7,94.1 	"/>
	<path class="st10" d="M27.7,88.2c0.5-1,0.2-2.3-0.7-3c1-0.9,1.4-2.4,0.5-3.5c-0.5-0.7-1.4-1-2.3-1c0.2-1.2-0.9-2.4-2.3-2.6
		c-0.7-0.2-1.6,0.2-2.1,0.9c-0.9-1-2.4-1.4-3.5-0.5c-0.7,0.5-1,1.4-0.9,2.3c-1.4-0.2-2.6,0.9-2.8,2.3c0,0.7,0.2,1.4,0.7,1.9
		c-1,0.9-1.2,2.4-0.3,3.5c0.5,0.7,1.4,1,2.3,1c-0.2,1.2,0.7,2.4,2.1,2.6c0.9,0.2,1.7-0.2,2.3-0.9c0.9,1,2.4,1.4,3.5,0.5
		c0.5-0.5,1-1.4,0.9-2.1C26.1,89.6,27.2,89,27.7,88.2z M19.9,87.3c-1.2-0.5-1.7-1.9-1.2-3.1c0.5-1.2,1.9-1.7,3.1-1.2
		c1.2,0.5,1.7,1.9,1.2,3.1C22.5,87.3,21.1,87.8,19.9,87.3L19.9,87.3z"/>
</g>
<rect x="39" y="74.3" class="st11" width="164.2" height="33.7"/>
<text transform="matrix(1 0 0 1 38.9809 86.2535)" class="st12"><tspan x="0" y="0" class="st13 st6 st7">You have met your goal </tspan><tspan x="0" y="16.8" class="st13 st6 st7">of 300 invites accepted!</tspan></text>
<rect x="39" y="134.3" class="st11" width="164.2" height="33.7"/>
<text transform="matrix(1 0 0 1 38.9809 146.2536)" class="st12"><tspan x="0" y="0" class="st13 st6 st7">You are 50% done with </tspan><tspan x="0" y="16.8" class="st13 st6 st7">your campaign!</tspan></text>
<circle class="st8" cx="203.9" cy="151.1" r="2.9"/>
<rect x="39" y="194.7" class="st11" width="164.2" height="49.3"/>
<text transform="matrix(1 0 0 1 38.9809 206.6536)" class="st12"><tspan x="0" y="0" class="st13 st6 st7">#Campaign2017 </tspan><tspan x="0" y="16.8" class="st13 st6 st7">mentioned on Twitter</tspan></text>
<line class="st0" x1="14.9" y1="298.5" x2="203.9" y2="298.5"/>
<line class="st0" x1="14.9" y1="358.5" x2="203.9" y2="358.5"/>
<ellipse transform="matrix(0.7071 -0.7071 0.7071 0.7071 -183.793 93.3447)" class="st1" cx="20.8" cy="268.5" rx="9.7" ry="9.7"/>
<path class="st2" d="M26.2,266.7h-3.8l-1.3-3.6c0-0.2-0.3-0.3-0.5-0.2c-0.2,0-0.2,0.2-0.2,0.2l-1.3,3.6h-3.6c-0.2,0-0.3,0.2-0.3,0.3
	c0,0.2,0,0.2,0.2,0.3l3,2.3l-1.2,3.6c0,0.2,0,0.3,0.2,0.5c0.2,0,0.2,0,0.3,0l3.1-2.1l3.1,2.1c0.2,0.2,0.3,0,0.5-0.2
	c0-0.2,0-0.2,0-0.3l-1.2-3.6l3.1-2.3c0.2-0.2,0.2-0.3,0.2-0.5C26.4,266.9,26.4,266.9,26.2,266.7z"/>
<g>
	
		<ellipse transform="matrix(0.7071 -0.7071 0.7071 0.7071 -225.7031 110.7426)" class="st3" cx="20.8" cy="327.8" rx="9.6" ry="9.6"/>
	<line class="st4" x1="22.8" y1="333.4" x2="23.8" y2="322.3"/>
	<line class="st4" x1="17.9" y1="333.4" x2="18.9" y2="322.3"/>
	<line class="st4" x1="15.4" y1="325.8" x2="26.5" y2="325.8"/>
	<line class="st4" x1="15.4" y1="329.6" x2="26.5" y2="329.6"/>
</g>
<rect x="39" y="254.3" class="st11" width="164.2" height="33.7"/>
<text transform="matrix(1 0 0 1 38.9809 266.2536)" class="st12"><tspan x="0" y="0" class="st13 st6 st7">You are 25% done with </tspan><tspan x="0" y="16.8" class="st13 st6 st7">your campaign!</tspan></text>
<circle class="st8" cx="203.9" cy="271.1" r="2.9"/>
<rect x="39" y="314.7" class="st11" width="164.2" height="49.3"/>
<text transform="matrix(1 0 0 1 38.9809 326.6536)" class="st12"><tspan x="0" y="0" class="st13 st6 st7">#Campaign2017 </tspan><tspan x="0" y="16.8" class="st13 st6 st7">mentioned on Twitter</tspan></text>
<circle class="st8" cx="203.9" cy="211.1" r="2.9"/>
</svg>
