<?xml version="1.0" encoding="utf-8"?>
<!-- Generator: Adobe Illustrator 20.1.0, SVG Export Plug-In . SVG Version: 6.00 Build 0)  -->
<svg version="1.1" id="Layer_1" xmlns="http://www.w3.org/2000/svg" xmlns:xlink="http://www.w3.org/1999/xlink" x="0px" y="0px"
	 viewBox="0 0 173.6 102" style="enable-background:new 0 0 173.6 102;" xml:space="preserve">
<style type="text/css">
	.st0{fill:none;stroke:url(#SVGID_1_);stroke-width:0.75;}
	.st1{fill:none;stroke:url(#SVGID_2_);stroke-width:0.75;}
	.st2{fill:none;stroke:url(#SVGID_3_);stroke-width:0.75;}
	.st3{fill:none;stroke:url(#SVGID_4_);stroke-width:0.75;}
	.st4{fill:none;stroke:url(#SVGID_5_);stroke-width:0.75;}
	.st5{fill:none;stroke:url(#SVGID_6_);stroke-width:0.75;}
	.st6{fill:none;}
	.st7{fill:#6B6B6B;}
	.st8{font-family:'AvenirNext-Medium';}
	.st9{font-size:15px;}
	.st10{font-family:'AvenirNext-Regular';}
	.st11{font-size:46px;}
</style>
<title>teammembers_1</title>
<linearGradient id="SVGID_1_" gradientUnits="userSpaceOnUse" x1="110.45" y1="678.4468" x2="123.82" y2="678.4468" gradientTransform="matrix(1 0 0 1 0 -664)">
	<stop  offset="0" style="stop-color:#2E368F"/>
	<stop  offset="1" style="stop-color:#1C76BC"/>
</linearGradient>
<path class="st0" d="M123.2,18.9c-2-0.9-4.3-2-4.5-2.7v-0.7c0.5-0.6,0.8-1.3,1-2c0.5-0.4,0.6-1.2,0.2-1.7v-1.6
	c0.1-1.5-1-2.8-2.5-2.9s-2.8,1-2.9,2.5c0,0.1,0,0.2,0,0.3v1.6c-0.4,0.5-0.3,1.3,0.2,1.7c0.2,0.7,0.5,1.4,1,2v0.7
	c-0.2,0.7-2.4,1.8-4.5,2.7c-0.2,0.1-0.3,0.3-0.3,0.5v1.8c0,0.3,0.2,0.5,0.4,0.5l0,0H123c0.3,0,0.5-0.2,0.5-0.5l0,0v-1.8
	C123.5,19.2,123.3,19,123.2,18.9z"/>
<linearGradient id="SVGID_2_" gradientUnits="userSpaceOnUse" x1="127.67" y1="703.6469" x2="141.0466" y2="703.6469" gradientTransform="matrix(1 0 0 1 0 -664)">
	<stop  offset="0" style="stop-color:#2E368F"/>
	<stop  offset="1" style="stop-color:#1C76BC"/>
</linearGradient>
<path class="st1" d="M140.4,44c-2-0.9-4.3-2-4.5-2.7v-0.7c0.5-0.6,0.8-1.3,1-2c0.5-0.4,0.6-1.2,0.2-1.7v-1.6c0.1-1.5-1-2.8-2.5-2.9
	c-1.5-0.1-2.8,1-2.9,2.5c0,0.1,0,0.2,0,0.3V37c-0.4,0.5-0.3,1.3,0.2,1.7c0.2,0.7,0.5,1.4,1,2v0.7c-0.2,0.7-2.4,1.8-4.5,2.7
	c-0.2,0.1-0.3,0.3-0.3,0.5v1.8c0,0.3,0.2,0.5,0.4,0.5l0,0h11.7c0.3,0,0.5-0.2,0.5-0.5l0,0v-1.9C140.8,44.2,140.6,44.1,140.4,44z"/>
<linearGradient id="SVGID_3_" gradientUnits="userSpaceOnUse" x1="143.325" y1="678.4468" x2="156.7016" y2="678.4468" gradientTransform="matrix(1 0 0 1 0 -664)">
	<stop  offset="0" style="stop-color:#2E368F"/>
	<stop  offset="1" style="stop-color:#1C76BC"/>
</linearGradient>
<path class="st2" d="M156,18.9c-2-0.9-4.3-2-4.5-2.7v-0.7c0.5-0.6,0.8-1.3,1-2c0.5-0.4,0.6-1.2,0.2-1.7v-1.6c0.1-1.5-1-2.8-2.5-2.9
	s-2.8,1-2.9,2.5c0,0.1,0,0.2,0,0.3v1.6c-0.4,0.5-0.3,1.3,0.2,1.7c0.2,0.7,0.5,1.4,1,2v0.7c-0.2,0.7-2.4,1.8-4.5,2.7
	c-0.2,0.1-0.3,0.3-0.3,0.5v1.8c0,0.3,0.2,0.5,0.4,0.5l0,0h11.7c0.3,0,0.5-0.2,0.5-0.5l0,0v-1.8C156.4,19.2,156.2,19,156,18.9z"/>
<linearGradient id="SVGID_4_" gradientUnits="userSpaceOnUse" x1="125.1107" y1="670.3118" x2="142.4893" y2="670.3118" gradientTransform="matrix(1 0 0 1 0 -664)">
	<stop  offset="0" style="stop-color:#2E368F"/>
	<stop  offset="1" style="stop-color:#1C76BC"/>
</linearGradient>
<path class="st3" d="M142.3,7.5c-5.3-3.1-11.7-3.1-17,0"/>
<linearGradient id="SVGID_5_" gradientUnits="userSpaceOnUse" x1="142.9333" y1="695.8354" x2="151.0033" y2="695.8354" gradientTransform="matrix(1 0 0 1 0 -664)">
	<stop  offset="0" style="stop-color:#2E368F"/>
	<stop  offset="1" style="stop-color:#1C76BC"/>
</linearGradient>
<path class="st4" d="M143.1,37.8c4.2-2.8,6.9-7.2,7.5-12.2C150,30.6,147.3,35.1,143.1,37.8"/>
<linearGradient id="SVGID_6_" gradientUnits="userSpaceOnUse" x1="116.6277" y1="695.8354" x2="124.687" y2="695.8354" gradientTransform="matrix(1 0 0 1 0 -664)">
	<stop  offset="0" style="stop-color:#2E368F"/>
	<stop  offset="1" style="stop-color:#1C76BC"/>
</linearGradient>
<path class="st5" d="M124.5,37.8c-4.2-2.8-6.9-7.2-7.5-12.2C117.6,30.6,120.3,35.1,124.5,37.8"/>
<rect x="-87.3" y="70.8" class="st6" width="348.2" height="36"/>
<text transform="matrix(1 0 0 1 27.798 82.1282)" class="st7 st8 st9">TEAM MEMBERS</text>
<rect x="3.8" y="6.7" class="st6" width="104.2" height="36"/>
<text transform="matrix(1 0 0 1 8.7699 41.4581)" class="st7 st10 st11">2.1K</text>
</svg>
